<svg width="2674" height="1184" viewBox="0 0 2674 1184" fill="none" xmlns="http://www.w3.org/2000/svg">
<path d="M355.297 706.079V834.26H445.27V711.625C445.27 699.694 450.01 688.251 458.446 679.815C466.883 671.378 478.326 666.638 490.257 666.638H582.51C625.547 666.625 666.816 649.521 697.244 619.086C727.672 588.651 744.767 547.378 744.77 504.341V504.341C744.77 461.299 727.673 420.018 697.24 389.58C666.806 359.142 625.529 342.039 582.486 342.032H355.297V502.258H445.27V426.718H576.422C596.785 426.718 616.316 434.806 630.717 449.203C645.119 463.6 653.213 483.127 653.219 503.491V503.491C653.219 523.859 645.128 543.393 630.726 557.795C616.324 572.198 596.79 580.289 576.422 580.289H481.075C464.554 580.281 448.194 583.529 432.929 589.848C417.665 596.166 403.795 605.432 392.114 617.114C380.433 628.797 371.168 642.667 364.851 657.932C358.534 673.197 355.287 689.558 355.297 706.079V706.079Z" fill="white"/>
<path d="M490.232 666.638C454.446 666.642 420.127 680.859 394.822 706.164C369.518 731.468 355.3 765.788 355.297 801.574V834.26H445.27V711.625C445.27 699.698 450.006 688.259 458.438 679.823C466.869 671.387 478.305 666.645 490.232 666.638V666.638Z" fill="url(#paint0_linear_11415_192966)"/>
<path d="M758.719 834.272V638.993C758.719 559.324 805.246 495.874 898.313 495.874C913.251 495.656 928.157 497.313 942.683 500.804V581.139C932.108 580.437 922.963 580.437 918.711 580.437C869.411 580.437 848.211 602.991 848.211 648.816V834.272H758.719Z" fill="white"/>
<path d="M969.508 668.647C969.508 570.65 1043.53 495.923 1146.47 495.923C1249.41 495.923 1323.42 570.601 1323.42 668.647C1323.42 766.694 1249.4 842.025 1146.47 842.025C1043.54 842.025 969.508 766.595 969.508 668.647ZM1235.31 668.647C1235.31 612.95 1197.94 573.473 1146.48 573.473C1095.03 573.473 1057.64 612.913 1057.64 668.647C1057.64 725.047 1095.01 763.822 1146.48 763.822C1197.95 763.822 1235.31 724.998 1235.31 668.647Z" fill="white"/>
<path d="M1609.63 668.647C1609.63 570.65 1683.66 495.923 1786.6 495.923C1889.54 495.923 1963.55 570.601 1963.55 668.647C1963.55 766.694 1889.52 842.074 1786.6 842.074C1683.67 842.074 1609.63 766.595 1609.63 668.647ZM1875.42 668.647C1875.42 612.95 1838.05 573.473 1786.6 573.473C1735.14 573.473 1697.76 612.913 1697.76 668.647C1697.76 725.047 1735.13 763.822 1786.6 763.822C1838.07 763.822 1875.42 724.998 1875.42 668.647V668.647Z" fill="white"/>
<path d="M2010.08 834.272V646.043C2010.08 558.621 2065.78 495.874 2165.18 495.874C2263.88 495.874 2319.57 558.621 2319.57 646.043V834.272H2230.75V653.093C2230.75 604.458 2208.88 574.138 2165.18 574.138C2121.47 574.138 2099.61 604.458 2099.61 653.093V834.272H2010.08Z" fill="white"/>
<path d="M1582.88 574.126H1486.27V697.501C1486.27 740.503 1501.78 760.248 1546.2 760.248C1550.42 760.248 1560.99 760.248 1574.4 759.545V832.165C1556.07 837.095 1539.89 839.917 1522.22 839.917C1447.5 839.967 1396.77 794.795 1396.77 709.493V574.126H1336.8V502.924H1351.76C1357.67 502.927 1363.53 501.764 1368.99 499.502C1374.45 497.24 1379.42 493.922 1383.6 489.739C1387.78 485.556 1391.09 480.59 1393.35 475.125C1395.61 469.659 1396.77 463.802 1396.77 457.888V390.827H1486.3V502.924H1582.88V574.126Z" fill="white"/>
<defs>
<linearGradient id="paint0_linear_11415_192966" x1="422.765" y1="810.006" x2="422.765" y2="541.819" gradientUnits="userSpaceOnUse">
<stop stop-color="white"/>
<stop offset="1" stop-color="#1C0554"/>
</linearGradient>
</defs>
</svg>
